<?xml version="1.0" encoding="UTF-8" standalone="no"?>
<!-- Created with Inkscape (http://www.inkscape.org/) -->

<svg
   width="508mm"
   height="46.712002mm"
   viewBox="0 0 508 46.712002"
   version="1.1"
   id="svg1"
   xml:space="preserve"
   sodipodi:docname="footer_transition.svg"
   inkscape:version="1.4.2 (f4327f4, 2025-05-13)"
   xmlns:inkscape="http://www.inkscape.org/namespaces/inkscape"
   xmlns:sodipodi="http://sodipodi.sourceforge.net/DTD/sodipodi-0.dtd"
   xmlns="http://www.w3.org/2000/svg"
   xmlns:svg="http://www.w3.org/2000/svg"><sodipodi:namedview
     id="namedview1"
     pagecolor="#505050"
     bordercolor="#eeeeee"
     borderopacity="1"
     inkscape:showpageshadow="0"
     inkscape:pageopacity="0"
     inkscape:pagecheckerboard="0"
     inkscape:deskcolor="#505050"
     inkscape:document-units="mm"
     inkscape:zoom="0.925"
     inkscape:cx="963.24324"
     inkscape:cy="148.64865"
     inkscape:window-width="1920"
     inkscape:window-height="1009"
     inkscape:window-x="1912"
     inkscape:window-y="-8"
     inkscape:window-maximized="1"
     inkscape:current-layer="svg1" /><defs
     id="defs1" /><g
     id="layer1"><rect
       style="fill:#065abc;fill-opacity:1;stroke-width:0.372625"
       id="rect2"
       width="524.64001"
       height="27.487734"
       x="-8.6059456"
       y="23.402632" /><path
       d="M -17.647473,23.360904 V 46.71286 l 1.482561,-0.155282 c 0.815554,-0.08519 61.943477,-5.289144 135.840092,-11.564214 L 254.03269,23.584435 389.07812,34.984906 c 74.275,6.2703 135.14088,11.398342 135.25722,11.395703 0.11635,-0.003 0.21179,-10.428294 0.21179,-23.167579 0,-12.824199 -0.10816,-23.09986086 -0.24229,-23.02234459 -0.1333,0.0772863 -60.99915,5.27194669 -135.25721,11.54357759 L 254.03297,23.137373 119.67518,11.728443 C 45.778565,5.4533737 -15.349358,0.24940502 -16.164912,0.1642301 L -17.647473,0.00894759 V 23.360904 m 0.135271,0.132267 c -2.88e-4,12.803563 0.03415,18.080009 0.07653,11.725584 0.04205,-6.354435 0.04205,-16.830081 0,-23.279219 -0.04205,-6.4491289 -0.07653,-1.249929 -0.07653,11.553635"
       stroke="none"
       fill="#3578be"
       fill-rule="evenodd"
       id="path1"
       style="stroke-width:0.273319" /></g></svg>
